Coordinates
version=1
nRows=65
nColumns=12
inDegrees=yes

Units are S.I. units (second, meters, Newtons, ...)
Angles are in degrees

endheader
time	SC_y	SC_z	SC_x	AC_y	AC_z	AC_x	GH_y	GH_z	GH_yy	EL_x	PS_y
       0.0              -16.48        0.06243          64.12          38.89         -1.852          3.641         -102.6          71.19          115.3          135.1          120.4
   0.04965              -16.48        0.06591          64.11          38.89         -1.852          3.642         -102.6          71.19          115.3          135.1          120.4
   0.09931              -16.49        0.06961          64.11          38.89         -1.852          3.643         -102.6          71.18          115.3          135.1          120.3
     0.149               -16.5        0.07355           64.1          38.89         -1.852          3.644         -102.5          71.17          115.2          135.1          120.3
    0.1986              -16.51        0.07774           64.1           38.9         -1.852          3.645         -102.5          71.17          115.2          135.0          120.3
    0.2483              -16.51         0.0822          64.09           38.9         -1.852          3.646         -102.5          71.16          115.1          135.0          120.3
    0.2979              -16.52        0.08697          64.09           38.9         -1.852          3.648         -102.4          71.15          115.1          135.0          120.3
    0.3476              -16.53        0.09207          64.08           38.9         -1.852          3.649         -102.4          71.14          115.0          135.0          120.3
    0.3972              -16.54        0.09754          64.07          38.91         -1.852           3.65         -102.4          71.13          115.0          134.9          120.3
    0.4469              -16.55         0.1034          64.06          38.91         -1.853          3.652         -102.3          71.13          114.9          134.9          120.3
    0.4965              -16.56         0.1097          64.06          38.91         -1.853          3.653         -102.3          71.11          114.9          134.9          120.2
    0.5462              -16.57         0.1165          64.05          38.92         -1.853          3.655         -102.2           71.1          114.8          134.9          120.2
    0.5958              -16.59         0.1238          64.04          38.92         -1.853          3.657         -102.1          71.09          114.7          134.8          120.2
    0.6455               -16.6         0.1316          64.03          38.93         -1.853          3.659         -102.1          71.08          114.7          134.8          120.2
    0.6951              -16.62         0.1402          64.01          38.93         -1.853          3.661         -102.0          71.06          114.6          134.7          120.2
    0.7448              -16.63         0.1494           64.0          38.94         -1.853          3.663         -101.9          71.05          114.5          134.7          120.1
    0.7945              -16.65         0.1595          63.99          38.94         -1.853          3.666         -101.9          71.03          114.4          134.6          120.1
    0.8441              -16.67         0.1704          63.97          38.95         -1.854          3.668         -101.8          71.01          114.3          134.6          120.1
    0.8938              -16.69         0.1824          63.96          38.95         -1.854          3.671         -101.7          70.99          114.2          134.5          120.1
    0.9434              -16.72         0.1955          63.94          38.96         -1.854          3.674         -101.6          70.97          114.1          134.5          120.0
    0.9931              -16.74         0.2099          63.92          38.97         -1.854          3.678         -101.4          70.95          113.9          134.4          120.0
     1.043              -16.77         0.2257           63.9          38.98         -1.854          3.682         -101.3          70.92          113.8          134.3          119.9
     1.092               -16.8         0.2432          63.88          38.99         -1.855          3.686         -101.2          70.89          113.6          134.2          119.9
     1.142              -16.83         0.2626          63.85           39.0         -1.855          3.691         -101.0          70.86          113.4          134.2          119.8
     1.192              -16.87         0.2841          63.82          39.01         -1.855          3.696         -100.9          70.82          113.2          134.1          119.8
     1.241              -16.92         0.3082          63.79          39.02         -1.856          3.702         -100.7          70.78          113.0          133.9          119.7
     1.291              -16.96         0.3351          63.75          39.04         -1.856          3.709         -100.4          70.74          112.7          133.8          119.7
     1.341              -17.02         0.3654          63.71          39.05         -1.857          3.717         -100.2          70.69          112.5          133.7          119.6
      1.39              -17.08         0.3996          63.67          39.07         -1.857          3.725         -99.93          70.63          112.1          133.5          119.5
      1.44              -17.15         0.4384          63.61          39.09         -1.858          3.735         -99.62          70.57          111.8          133.3          119.4
      1.49              -17.23         0.4828          63.55          39.12         -1.858          3.746         -99.26          70.49          111.3          133.1          119.3
     1.539              -17.32         0.5337          63.49          39.15         -1.859          3.758         -98.85          70.41          110.9          132.9          119.1
     1.589              -17.42         0.5924          63.41          39.18          -1.86          3.773         -98.38          70.31          110.3          132.6          119.0
     1.639              -17.54         0.6607          63.31          39.22         -1.861           3.79         -97.83           70.2          109.7          132.2          118.8
     1.688              -17.69         0.7406          63.21          39.26         -1.862           3.81         -97.19          70.06          108.9          131.9          118.6
     1.738              -17.85         0.8348          63.08          39.31         -1.864          3.833         -96.44          69.91          108.0          131.4          118.4
     1.788              -18.05         0.9467          62.93          39.37         -1.866          3.861         -95.54          69.72          107.0          130.9          118.1
     1.837              -18.29          1.081          62.75          39.44         -1.868          3.894         -94.46           69.5          105.7          130.2          117.7
     1.887              -18.58          1.243          62.53          39.53          -1.87          3.934         -93.16          69.23          104.1          129.4          117.3
     1.936              -18.93          1.441          62.26          39.64         -1.873          3.984         -91.57           68.9          102.3          128.5          116.8
     1.986              -19.37          1.686          61.93          39.78         -1.877          4.044         -89.61          68.49          99.96          127.3          116.2
     2.036              -19.91          1.991          61.52          39.94         -1.882           4.12         -87.16          67.98          97.07          125.8          115.4
     2.085               -20.6          2.376          61.01          40.15         -1.887          4.215         -84.08          67.34          93.43          124.0          114.4
     2.135              -21.47          2.864          60.35          40.42         -1.895          4.337         -80.16          66.53           88.8          121.7          113.1
     2.185              -22.58           3.49          59.51          40.76         -1.905          4.492         -75.14          65.49          82.88          118.6          111.5
     2.234              -24.01          4.292          58.43           41.2         -1.917          4.691          -68.7          64.15          75.29          114.8          109.4
     2.284              -25.83          5.317          57.05          41.76         -1.933          4.945         -60.48          62.45          65.58          109.9          106.7
     2.334              -28.13          6.607          55.31          42.47         -1.953          5.265         -50.13           60.3          53.38          103.7          103.4
     2.383              -30.92          8.178           53.2          43.33         -1.977          5.655         -37.53          57.68          38.51          96.12          99.32
     2.433              -34.16          9.998          50.75          44.32         -2.005          6.107         -22.92          54.65          21.28          87.37           94.6
     2.483              -37.67          11.97          48.09           45.4         -2.035          6.596         -7.107          51.37          2.617          77.89          89.49
     2.532              -41.18          13.94          45.44          46.48         -2.065          7.085          8.709          48.09         -16.04          68.42          84.37
     2.582              -44.42          15.76          42.99          47.48         -2.093          7.537          23.32          45.06         -33.28          59.67          79.65
     2.632              -47.22          17.33          40.88          48.33         -2.117          7.927          35.92          42.44         -48.15          52.12          75.58
     2.681              -49.51          18.62          39.14          49.04         -2.137          8.246          46.26           40.3         -60.35          45.92          72.24
     2.731              -51.34          19.65          37.76           49.6         -2.153          8.501          54.49          38.59         -70.05           41.0          69.58
     2.781              -52.76          20.45          36.68          50.04         -2.165            8.7          60.92          37.26         -77.65          37.14           67.5
      2.83              -53.88          21.08          35.84          50.38         -2.175          8.855          65.94          36.21         -83.57          34.13          65.87
      2.88              -54.75          21.56          35.18          50.65         -2.183          8.976          69.86           35.4         -88.19          31.79          64.61
      2.93              -55.43          21.95          34.67          50.86         -2.188          9.072          72.94          34.76         -91.83          29.94          63.61
     2.979              -55.97          22.25          34.25          51.03         -2.193          9.147          75.39          34.25         -94.72          28.47          62.82
     3.029              -56.41           22.5          33.93          51.16         -2.197          9.208          77.36          33.85         -97.04           27.3          62.18
     3.079              -56.76           22.7          33.66          51.27           -2.2          9.257          78.95          33.52         -98.91          26.34          61.67
     3.128              -57.05          22.86          33.44          51.36         -2.202          9.298          80.25          33.25         -100.4          25.56          61.25
     3.178              -57.29          22.99          33.26          51.43         -2.204          9.331          81.32          33.02         -101.7          24.92           60.9
